<?xml version="1.0" standalone="no"?>
<!DOCTYPE svg PUBLIC "-//W3C//DTD SVG 20010904//EN"
 "http://www.w3.org/TR/2001/REC-SVG-20010904/DTD/svg10.dtd">
<svg version="1.0" xmlns="http://www.w3.org/2000/svg"
 width="500.000000pt" height="500.000000pt" viewBox="0 0 500.000000 500.000000"
 preserveAspectRatio="xMidYMid meet">

<g transform="translate(0.000000,500.000000) scale(0.100000,-0.100000)"
fill="#000000" stroke="none">
<path d="M2514 3679 c-18 -20 -18 -21 0 -34 14 -11 22 -11 37 -2 24 15 24 20
1 41 -18 15 -20 15 -38 -5z"/>
<path d="M2333 3663 c-7 -2 -13 -19 -13 -38 0 -34 -12 -50 -45 -58 -16 -4 -15
-5 6 -6 25 -1 26 -4 33 -82 8 -103 17 -119 61 -119 18 0 36 4 39 9 3 5 -2 8
-12 7 -18 -1 -29 50 -31 147 -1 41 -4 47 -22 47 l-20 0 20 26 c36 45 26 84
-16 67z"/>
<path d="M2684 3630 c-7 -33 -19 -45 -49 -53 -18 -4 -17 -5 3 -6 23 -1 23 -2
17 -90 -7 -82 -6 -90 14 -110 11 -11 31 -21 43 -21 17 0 19 3 10 12 -13 13
-16 79 -6 151 6 40 10 46 33 50 14 2 4 5 -24 6 -47 1 -48 2 -28 16 11 8 26 28
31 45 10 28 9 30 -14 30 -19 0 -26 -6 -30 -30z"/>
<path d="M1294 3575 c-16 -25 -15 -29 15 -107 17 -44 30 -82 29 -83 -2 -2 -32
-15 -67 -29 -100 -40 -119 -66 -85 -114 20 -30 58 -28 134 5 35 15 64 22 69
17 4 -5 21 -40 36 -78 32 -76 54 -93 98 -77 40 15 42 47 9 132 -17 41 -28 77
-26 80 1 3 35 18 74 33 82 33 101 56 78 102 -8 17 -23 30 -36 32 -22 3 -42 -3
-133 -42 l-36 -15 -29 71 c-15 39 -34 77 -42 84 -23 23 -69 17 -88 -11z"/>
<path d="M2398 3573 c6 -2 18 -2 25 0 6 3 1 5 -13 5 -14 0 -19 -2 -12 -5z"/>
<path d="M2500 3475 l0 -105 30 0 30 0 0 89 c0 49 3 96 6 105 5 13 -1 16 -30
16 l-36 0 0 -105z"/>
<path d="M2105 3553 c34 -8 53 -33 65 -83 12 -52 7 -84 -18 -112 -21 -25 -1
-22 39 5 93 62 38 201 -78 196 -21 -1 -23 -3 -8 -6z"/>
<path d="M2019 3527 c-42 -28 -56 -64 -43 -113 11 -46 48 -74 100 -79 21 -1
31 -1 22 2 -30 7 -56 51 -63 104 -6 43 -4 56 14 80 26 35 16 37 -30 6z"/>
<path d="M2883 3539 c-18 -5 -33 -14 -33 -20 0 -19 31 -21 58 -3 15 11 36 22
47 26 33 10 -35 8 -72 -3z"/>
<path d="M2990 3525 c7 -8 9 -23 4 -37 -3 -12 -8 -40 -10 -61 -3 -46 -28 -77
-60 -77 -57 0 -50 81 8 100 29 8 26 9 -22 4 -61 -6 -90 -25 -90 -60 0 -49 67
-77 121 -50 39 20 40 20 33 1 -8 -19 45 -33 56 -15 5 7 11 49 15 94 7 75 6 81
-15 98 -28 23 -59 25 -40 3z"/>
<path d="M1815 3493 c11 -3 32 -16 46 -29 22 -21 28 -23 38 -10 17 20 -23 46
-69 45 -21 -1 -27 -3 -15 -6z"/>
<path d="M1738 3460 c-28 -28 -30 -35 -26 -81 3 -27 13 -58 23 -69 25 -27 78
-41 117 -29 31 8 78 45 78 60 0 5 -11 -3 -25 -17 -51 -51 -115 -16 -135 72 -7
28 -5 47 5 66 18 37 1 36 -37 -2z"/>
<path d="M3132 3478 c-23 -23 -12 -51 38 -99 52 -50 62 -81 33 -98 -16 -9 -15
-10 5 -11 40 0 62 18 62 52 0 24 -11 40 -50 76 -49 44 -63 75 -37 85 6 3 1 6
-13 6 -15 1 -31 -4 -38 -11z"/>
<path d="M3227 3475 c12 -8 23 -25 25 -37 3 -23 38 -39 38 -18 0 16 -55 70
-71 70 -8 0 -4 -7 8 -15z"/>
<path d="M3085 3361 c-11 -19 33 -80 59 -81 5 0 4 6 -2 13 -6 6 -12 25 -14 42
-3 30 -30 46 -43 26z"/>
<path d="M2389 3150 c-142 -75 -172 -273 -59 -389 106 -109 276 -77 345 64 24
49 27 64 23 123 -3 37 -12 81 -21 99 -22 42 -75 93 -114 109 -47 20 -131 17
-174 -6z m171 -32 c172 -87 125 -370 -63 -386 -117 -9 -200 76 -201 205 0 80
38 145 103 180 56 29 104 29 161 1z"/>
<path d="M1854 2861 c-119 -30 -186 -151 -150 -272 55 -189 304 -244 410 -91
37 53 47 146 23 205 -48 114 -175 185 -283 158z m168 -67 c50 -34 98 -119 98
-171 0 -38 -23 -98 -48 -126 -87 -96 -258 -62 -322 64 -24 46 -27 137 -6 177
35 67 86 93 173 89 50 -2 71 -9 105 -33z"/>
<path d="M3020 2855 c-97 -31 -170 -129 -170 -227 l0 -48 -59 0 c-57 0 -59 -1
-64 -30 l-6 -29 -51 34 c-132 89 -300 77 -418 -29 -41 -38 -92 -125 -92 -158
0 -11 -14 -24 -37 -33 -89 -37 -148 -117 -160 -214 -11 -96 49 -205 141 -254
32 -17 58 -22 116 -22 84 0 133 20 184 74 25 26 37 31 76 31 39 0 51 -5 76
-31 64 -68 176 -96 263 -66 42 15 46 15 72 -4 49 -34 83 -26 151 39 105 99
177 215 217 347 27 89 42 206 27 210 -6 2 -23 6 -39 9 l-27 6 34 50 c63 91 67
181 14 268 -43 71 -158 106 -248 77z m165 -48 c53 -30 85 -87 85 -152 0 -54
-26 -120 -57 -148 -24 -21 -37 -10 -48 41 l-7 32 -139 0 -139 0 0 33 c0 83 52
165 124 198 57 26 131 24 181 -4z m-604 -242 c25 -9 62 -30 83 -47 l38 -31
-23 -18 c-13 -10 -36 -19 -51 -19 -26 0 -28 -3 -28 -42 0 -127 79 -324 176
-443 61 -73 61 -79 -8 -90 -62 -11 -139 18 -186 69 -39 42 -41 43 -100 42 -56
-1 -63 -4 -97 -38 -67 -69 -139 -90 -227 -64 -93 27 -158 113 -158 211 0 97
42 163 132 207 48 24 55 31 65 71 22 80 104 165 188 195 45 16 145 14 196 -3z
m560 -52 c14 -38 48 -73 87 -89 17 -8 32 -21 32 -28 0 -36 -32 -162 -56 -218
-66 -157 -218 -331 -273 -313 -11 3 -54 42 -95 86 -108 114 -172 249 -200 420
-6 35 -5 37 41 61 35 17 53 35 68 66 l20 42 183 0 182 0 11 -27z"/>
<path d="M2870 2345 l0 -45 -45 0 -45 0 0 -75 0 -75 45 0 45 0 0 -45 0 -45 75
0 75 0 0 45 0 45 45 0 45 0 0 75 0 75 -45 0 -45 0 0 45 0 45 -75 0 -75 0 0
-45z m110 -30 l0 -45 50 0 50 0 0 -40 0 -40 -50 0 -50 0 0 -45 c0 -45 0 -45
-35 -45 -35 0 -35 0 -35 45 l0 45 -51 0 -50 0 3 38 c3 37 3 37 51 40 l47 3 0
45 c0 44 0 44 35 44 35 0 35 0 35 -45z"/>
<path d="M1760 1578 c0 -2 13 -37 29 -78 39 -100 55 -100 93 -1 16 41 26 76
24 79 -13 12 -33 -10 -46 -47 -7 -23 -17 -44 -21 -47 -5 -2 -16 18 -26 46 -12
34 -23 50 -35 50 -10 0 -18 -1 -18 -2z"/>
<path d="M1940 1500 l0 -80 50 0 c38 0 50 4 50 15 0 10 -11 15 -35 15 -28 0
-35 4 -35 20 0 16 7 20 30 20 38 0 40 18 3 22 -17 2 -29 10 -31 21 -3 14 4 17
32 17 25 0 36 4 36 15 0 11 -12 15 -50 15 l-50 0 0 -80z"/>
<path d="M2070 1565 c0 -9 9 -15 25 -15 24 0 25 -2 25 -65 0 -51 3 -65 15 -65
12 0 15 14 15 65 0 63 1 65 25 65 16 0 25 6 25 15 0 12 -14 15 -65 15 -51 0
-65 -3 -65 -15z"/>
<path d="M2230 1500 l0 -80 50 0 c38 0 50 4 50 15 0 10 -11 15 -35 15 -28 0
-35 4 -35 20 0 16 7 20 30 20 38 0 40 18 3 22 -17 2 -29 10 -31 21 -3 14 4 17
32 17 25 0 36 4 36 15 0 11 -12 15 -50 15 l-50 0 0 -80z"/>
<path d="M2370 1501 c0 -65 3 -81 15 -81 9 0 15 9 15 25 0 16 6 25 15 25 9 0
21 -11 27 -25 6 -14 19 -25 30 -25 21 0 22 8 3 34 -12 16 -12 20 1 33 16 16
18 51 5 72 -5 7 -32 16 -60 19 l-51 5 0 -82z m85 24 c0 -14 -8 -21 -27 -23
-24 -3 -28 0 -28 23 0 23 4 26 28 23 19 -2 27 -9 27 -23z"/>
<path d="M2530 1500 c0 -64 3 -80 15 -80 12 0 15 16 15 80 0 64 -3 80 -15 80
-12 0 -15 -16 -15 -80z"/>
<path d="M2600 1500 c0 -73 2 -80 19 -80 16 0 20 8 23 46 l3 47 33 -47 c50
-69 62 -62 62 34 0 64 -3 80 -15 80 -11 0 -15 -12 -15 -45 0 -25 -4 -45 -8
-45 -5 0 -22 20 -40 45 -48 69 -62 61 -62 -35z"/>
<path d="M2793 1500 c-28 -72 -29 -80 -13 -80 10 0 20 7 24 15 3 9 19 15 41
15 24 0 35 -4 35 -15 0 -8 9 -15 20 -15 20 0 20 1 -1 53 -12 28 -26 64 -31 80
-18 49 -41 33 -75 -53z m66 -17 c1 -7 -8 -13 -19 -13 -23 0 -25 12 -8 43 11
21 11 21 19 2 4 -11 8 -26 8 -32z"/>
<path d="M2950 1500 c0 -64 3 -80 15 -80 9 0 15 9 15 25 0 16 6 25 15 25 9 0
21 -11 27 -25 6 -14 20 -25 30 -25 17 0 17 2 4 29 -14 26 -14 30 -1 41 22 18
18 57 -7 74 -12 9 -39 16 -60 16 l-38 0 0 -80z m85 25 c0 -14 -8 -21 -27 -23
-24 -3 -28 0 -28 23 0 23 4 26 28 23 19 -2 27 -9 27 -23z"/>
<path d="M3119 1526 c17 -29 31 -65 31 -80 0 -16 5 -26 15 -26 10 0 15 10 15
28 0 15 13 51 29 80 27 47 28 52 10 52 -11 0 -25 -13 -35 -32 l-16 -31 -19 24
c-10 13 -19 27 -19 32 0 4 -9 7 -21 7 -19 0 -19 -3 10 -54z"/>
<path d="M2052 1358 c-7 -7 -12 -23 -12 -36 0 -18 9 -27 40 -39 45 -18 54 -43
15 -43 -14 0 -25 5 -25 10 0 6 -7 10 -15 10 -22 0 -19 -27 4 -40 32 -17 69
-12 85 12 13 19 14 25 2 42 -7 11 -27 24 -44 28 -33 9 -43 32 -17 42 8 3 21
-1 29 -9 19 -19 36 -19 36 0 0 30 -73 48 -98 23z"/>
<path d="M2180 1363 c0 -5 12 -26 25 -48 14 -22 25 -55 25 -72 0 -26 4 -33 20
-33 16 0 20 7 20 33 0 17 11 52 25 76 30 52 30 51 6 51 -11 0 -23 -12 -31 -30
-7 -16 -15 -30 -19 -30 -4 0 -15 14 -24 30 -16 27 -47 42 -47 23z"/>
<path d="M2356 1354 c-9 -8 -16 -22 -16 -29 0 -19 28 -45 49 -45 18 0 41 -18
41 -32 0 -12 -38 -10 -60 4 -23 14 -33 8 -24 -16 8 -21 50 -31 83 -20 18 7 27
18 29 37 3 24 -2 30 -43 47 -25 11 -43 24 -40 30 8 13 31 13 55 -2 27 -17 37
-2 15 22 -22 24 -67 26 -89 4z"/>
<path d="M2480 1355 c0 -9 9 -15 25 -15 24 0 25 -2 25 -65 0 -58 2 -65 20 -65
18 0 20 7 20 65 0 63 1 65 25 65 16 0 25 6 25 15 0 12 -14 15 -70 15 -56 0
-70 -3 -70 -15z"/>
<path d="M2650 1290 l0 -80 50 0 c38 0 50 4 50 15 0 10 -11 15 -35 15 -28 0
-35 4 -35 20 0 16 7 20 30 20 17 0 30 5 30 10 0 6 -13 10 -30 10 -23 0 -30 4
-30 20 0 16 7 20 35 20 24 0 35 5 35 15 0 11 -12 15 -50 15 l-50 0 0 -80z"/>
<path d="M2790 1290 c0 -64 3 -80 15 -80 11 0 15 12 15 48 l1 47 20 -27 c26
-35 42 -35 59 -3 20 37 30 30 30 -20 0 -33 4 -45 15 -45 12 0 15 16 15 80 0
94 -14 104 -56 40 -15 -22 -29 -40 -33 -40 -3 0 -17 18 -31 40 -38 62 -50 53
-50 -40z"/>
</g>
</svg>
