<?xml version="1.0" standalone="no"?>
<!DOCTYPE svg PUBLIC "-//W3C//DTD SVG 20010904//EN"
 "http://www.w3.org/TR/2001/REC-SVG-20010904/DTD/svg10.dtd">
<svg version="1.0" xmlns="http://www.w3.org/2000/svg"
 width="512.000000pt" height="512.000000pt" viewBox="0 0 512.000000 512.000000"
 preserveAspectRatio="xMidYMid meet">

<g transform="translate(0.000000,512.000000) scale(0.100000,-0.100000)"
fill="#000000" stroke="none">
<path d="M2935 5039 c-30 -36 -29 -45 8 -73 26 -19 28 -19 62 -3 51 24 55 44
17 79 -41 36 -54 35 -87 -3z"/>
<path d="M2551 4979 c-6 -18 -11 -45 -11 -60 0 -46 -20 -77 -64 -98 -38 -19
-39 -20 -14 -21 42 0 54 -32 67 -165 20 -202 41 -245 120 -245 41 0 81 9 81
19 0 3 -10 11 -22 16 -34 15 -48 72 -58 228 -5 78 -14 145 -21 153 -6 8 -22
14 -35 14 -13 0 -24 2 -24 4 0 2 16 28 35 57 28 40 35 61 33 88 -3 33 -6 36
-39 39 -33 3 -38 0 -48 -29z"/>
<path d="M3302 4987 c-6 -6 -14 -26 -18 -42 -13 -57 -35 -86 -77 -105 -37 -17
-39 -19 -16 -19 15 -1 30 -8 33 -17 3 -9 3 -85 0 -168 -4 -84 -4 -165 0 -179
8 -34 80 -87 118 -87 33 0 32 -2 12 39 -14 28 -16 57 -11 174 5 161 16 204 55
214 l27 7 -25 7 c-14 4 -44 7 -67 8 -49 1 -52 6 -19 32 28 22 66 95 66 127 0
18 -6 22 -34 22 -18 0 -38 -6 -44 -13z"/>
<path d="M492 4861 c-18 -12 -39 -36 -48 -53 -17 -36 -12 -58 65 -266 17 -46
31 -89 31 -95 0 -7 -28 -23 -62 -37 -96 -37 -203 -88 -233 -112 -56 -44 -53
-113 8 -164 28 -24 37 -26 92 -21 34 3 98 20 150 41 157 63 138 72 222 -103
64 -132 77 -153 107 -167 42 -20 95 -12 132 19 21 18 26 31 26 70 0 51 -7 75
-58 214 -19 51 -34 101 -34 111 0 15 28 30 125 71 143 60 195 100 195 149 0
43 -15 79 -46 107 -45 42 -93 34 -281 -46 -51 -21 -96 -39 -100 -39 -4 0 -19
28 -32 63 -40 104 -106 241 -124 256 -29 24 -98 25 -135 2z"/>
<path d="M2910 4625 l0 -215 60 0 60 0 2 170 c1 94 2 189 3 213 l0 42 -62 3
-63 3 0 -216z"/>
<path d="M2713 4823 c9 -2 23 -2 30 0 6 3 -1 5 -18 5 -16 0 -22 -2 -12 -5z"/>
<path d="M2105 4789 c-4 -5 1 -9 9 -9 8 0 31 -14 50 -31 49 -43 79 -124 80
-220 1 -66 -2 -80 -26 -117 -16 -23 -28 -46 -28 -52 0 -18 96 38 129 75 41 47
51 74 51 136 0 94 -64 181 -153 208 -52 15 -106 20 -112 10z"/>
<path d="M1955 4748 c-102 -73 -134 -135 -116 -224 6 -31 20 -72 32 -90 28
-45 95 -83 160 -91 l54 -6 -32 27 c-51 43 -84 122 -90 214 -5 76 -4 82 26 136
28 49 30 56 14 56 -10 0 -31 -10 -48 -22z"/>
<path d="M3697 4756 c-27 -7 -56 -21 -65 -30 -16 -16 -16 -18 2 -32 27 -19 45
-18 86 6 19 11 58 32 85 45 l50 25 -55 -1 c-30 0 -77 -6 -103 -13z"/>
<path d="M3897 4754 c-3 -4 0 -19 8 -35 13 -25 13 -41 -5 -146 -22 -129 -45
-176 -94 -193 -44 -15 -65 -12 -91 15 -49 48 -18 131 65 173 49 25 44 26 -53
12 -145 -21 -201 -89 -147 -178 24 -40 73 -62 134 -62 44 0 55 3 129 34 l38
16 -6 -23 c-7 -28 9 -44 51 -53 50 -9 64 11 80 116 7 52 14 132 14 176 0 81 0
82 -35 113 -20 17 -40 31 -45 31 -4 0 -15 2 -22 5 -8 3 -17 3 -21 -1z"/>
<path d="M1568 4629 c35 -24 70 -48 77 -53 20 -15 47 1 43 25 -5 37 -51 62
-120 67 l-63 4 63 -43z"/>
<path d="M1376 4609 c-65 -58 -80 -90 -72 -158 14 -133 53 -191 144 -217 95
-28 190 -2 266 72 51 50 37 55 -20 8 -42 -35 -53 -39 -102 -39 -52 0 -56 2
-96 46 -69 76 -96 200 -61 282 18 44 18 47 1 47 -7 0 -34 -19 -60 -41z"/>
<path d="M4195 4625 c-45 -45 -35 -73 70 -190 118 -131 127 -155 78 -202 l-28
-26 53 5 c70 7 103 37 104 96 0 52 -16 77 -107 168 -39 39 -77 85 -84 102 -12
29 -12 35 4 52 18 20 17 20 -24 20 -31 0 -48 -6 -66 -25z"/>
<path d="M4386 4625 c18 -14 39 -44 49 -67 23 -58 65 -88 78 -54 8 19 -44 87
-91 119 -48 34 -78 35 -36 2z"/>
<path d="M4101 4392 c-14 -26 17 -90 63 -130 41 -35 62 -42 51 -14 -4 9 -15
43 -25 75 -10 32 -24 65 -30 73 -17 20 -47 18 -59 -4z"/>
<path d="M2749 3987 c-93 -26 -201 -112 -255 -203 -161 -272 -34 -635 254
-724 219 -68 441 52 538 290 43 106 27 327 -30 424 -34 58 -152 168 -211 196
-59 29 -222 38 -296 17z m265 -85 c85 -40 149 -100 186 -176 68 -141 59 -311
-25 -441 -45 -69 -90 -109 -160 -142 -51 -23 -73 -27 -145 -27 -154 0 -259 64
-325 197 -82 167 -59 377 55 501 113 123 269 156 414 88z"/>
<path d="M1620 3379 c-113 -19 -230 -99 -287 -197 -154 -262 -6 -611 300 -704
102 -30 228 -23 317 18 113 53 181 129 218 240 63 189 27 341 -117 485 -129
130 -276 183 -431 158z m220 -91 c63 -19 141 -79 191 -147 111 -150 127 -275
55 -424 -62 -130 -166 -192 -316 -191 -136 0 -264 65 -345 175 -58 79 -78 148
-79 269 0 81 4 103 26 151 47 102 130 164 242 179 69 9 174 4 226 -12z"/>
<path d="M3965 3362 c-119 -41 -226 -132 -284 -241 -43 -82 -61 -149 -61 -237
l0 -71 -111 -5 c-125 -5 -132 -9 -143 -78 -3 -22 -8 -40 -10 -40 -2 0 -47 27
-99 60 -52 33 -130 72 -174 87 -71 26 -90 28 -218 28 -127 0 -147 -3 -219 -28
-95 -33 -201 -100 -264 -166 -61 -63 -141 -197 -158 -262 -17 -67 -23 -72
-114 -120 -107 -55 -190 -140 -240 -244 -44 -90 -65 -193 -55 -270 24 -180
149 -355 305 -429 56 -26 79 -31 167 -34 183 -7 284 23 391 117 99 86 108 91
183 91 87 0 104 -7 180 -76 148 -132 341 -173 532 -113 73 23 58 25 162 -30
89 -48 164 -15 315 138 133 136 223 262 304 426 96 193 155 410 159 580 l2 80
-62 15 c-34 9 -65 19 -68 22 -4 4 12 34 35 68 23 34 58 96 78 138 36 75 37 80
37 192 0 108 -2 119 -31 181 -55 116 -131 181 -255 220 -79 25 -215 25 -284 1z
m253 -66 c157 -42 251 -170 252 -341 0 -172 -120 -373 -179 -301 -7 9 -21 46
-30 83 l-17 68 -282 3 -282 2 0 53 c0 200 140 387 325 433 68 17 149 17 213 0z
m-1213 -507 c74 -13 160 -56 248 -122 l68 -51 -23 -19 c-37 -30 -101 -57 -134
-57 -51 0 -58 -18 -50 -123 19 -280 162 -619 372 -885 84 -106 89 -128 34
-148 -56 -20 -188 -17 -254 6 -79 27 -119 53 -202 131 -62 59 -76 67 -121 74
-53 7 -151 -1 -190 -16 -13 -5 -52 -35 -87 -68 -116 -108 -191 -141 -318 -141
-284 0 -495 247 -451 529 22 143 100 250 238 325 119 66 132 79 156 156 22 72
71 157 129 223 69 79 204 166 287 186 54 13 229 13 298 0z m1210 -126 c33 -74
82 -124 169 -175 l69 -40 -6 -62 c-12 -120 -83 -358 -145 -481 -107 -215 -319
-477 -431 -534 -78 -40 -88 -36 -235 112 -239 240 -368 481 -436 816 -29 144
-28 148 50 193 89 51 131 93 165 166 l29 62 372 0 373 0 26 -57z"/>
<path d="M3660 2325 l0 -95 -90 0 -90 0 0 -150 0 -150 90 0 90 0 0 -95 0 -96
153 3 152 3 3 93 3 92 89 0 90 0 0 150 0 150 -90 0 -89 0 -3 93 -3 92 -152 3
-153 3 0 -96z m190 26 c24 -6 25 -12 30 -91 l5 -85 103 -3 102 -3 0 -79 0 -80
-105 0 -104 0 -3 -87 -3 -88 -55 -3 c-70 -4 -80 8 -80 105 l0 73 -101 0 -102
0 6 67 c4 37 11 71 17 77 5 5 48 12 95 14 l85 5 0 76 c0 42 4 81 8 87 13 20
59 27 102 15z"/>
<path d="M1410 756 c0 -8 16 -55 34 -105 86 -224 119 -243 181 -108 39 87 81
214 73 223 -4 3 -16 3 -28 -1 -20 -6 -43 -47 -89 -158 -6 -16 -17 -27 -24 -24
-6 2 -27 39 -45 83 -18 43 -40 85 -49 92 -23 16 -53 15 -53 -2z"/>
<path d="M1770 605 l0 -165 73 1 c93 1 122 9 122 34 0 17 -9 21 -52 26 -72 9
-83 15 -83 43 0 30 8 36 67 44 53 8 68 28 26 37 -50 11 -81 26 -87 42 -10 26
14 43 59 43 56 0 75 8 75 30 0 23 -27 30 -122 30 l-78 0 0 -165z"/>
<path d="M2053 760 c-13 -5 -23 -13 -23 -18 0 -16 24 -32 50 -32 14 0 30 -4
36 -8 6 -4 14 -56 17 -121 4 -78 10 -119 20 -128 27 -28 41 11 45 126 2 58 9
112 14 119 6 6 23 12 38 12 35 0 59 25 41 43 -15 15 -206 21 -238 7z"/>
<path d="M2360 605 l0 -165 73 1 c93 1 122 9 122 34 0 17 -9 21 -52 26 -72 9
-83 15 -83 43 0 30 8 36 67 44 53 8 68 28 26 37 -50 11 -81 26 -87 42 -10 26
14 43 59 43 56 0 75 8 75 30 0 23 -27 30 -122 30 l-78 0 0 -165z"/>
<path d="M2641 623 c3 -110 8 -155 18 -167 18 -22 36 -6 48 44 14 52 45 52 79
0 38 -57 94 -77 94 -33 0 8 -10 28 -21 45 -23 31 -23 30 16 98 30 52 12 114
-40 136 -20 8 -72 18 -117 21 l-80 6 3 -150z m167 59 c16 -21 15 -29 -9 -53
-14 -14 -30 -19 -52 -17 -29 3 -32 6 -35 42 -2 24 2 42 9 47 19 11 72 -1 87
-19z"/>
<path d="M2980 751 c-11 -21 -14 -241 -4 -278 4 -13 14 -23 24 -23 24 0 30 27
30 157 0 142 -20 199 -50 144z"/>
<path d="M3130 755 c-15 -19 -26 -192 -16 -258 7 -45 23 -61 51 -51 19 8 26
32 34 117 l6 70 37 -55 c82 -124 130 -157 145 -100 10 36 10 230 0 265 -5 19
-13 27 -25 25 -14 -3 -19 -20 -26 -91 -4 -48 -13 -87 -18 -87 -10 0 -36 29
-93 105 -37 50 -63 75 -76 75 -3 0 -12 -7 -19 -15z"/>
<path d="M3576 745 c-24 -26 -84 -157 -107 -234 -21 -71 7 -88 59 -35 19 20
33 24 83 24 54 0 60 -2 69 -24 14 -37 70 -47 70 -13 0 7 -26 77 -58 157 -62
157 -74 170 -116 125z m54 -137 c13 -48 5 -61 -36 -56 -25 3 -29 7 -27 32 2
33 30 79 43 71 5 -3 14 -24 20 -47z"/>
<path d="M3821 623 c3 -108 8 -155 18 -167 19 -23 40 -4 47 45 9 55 44 54 81
-2 28 -42 69 -67 85 -51 5 5 0 28 -14 56 -20 41 -21 49 -8 69 39 62 43 77 28
115 -19 52 -61 73 -159 79 l-81 6 3 -150z m155 72 c6 -2 14 -13 17 -25 8 -31
-25 -60 -68 -60 -35 0 -35 0 -35 44 0 54 16 62 86 41z"/>
<path d="M4120 759 c0 -6 20 -48 45 -95 41 -79 55 -116 70 -187 4 -22 11 -28
28 -25 18 2 23 12 28 48 8 52 36 126 73 190 31 53 33 80 8 80 -22 0 -63 -42
-87 -88 -16 -33 -17 -33 -37 -15 -11 10 -31 37 -45 60 -20 35 -30 43 -54 43
-16 0 -29 -5 -29 -11z"/>
<path d="M2013 328 c-21 -10 -43 -54 -43 -88 0 -23 36 -54 92 -80 54 -25 73
-44 64 -65 -8 -23 -69 -19 -91 5 -21 24 -38 25 -54 6 -28 -33 36 -86 103 -86
51 0 84 16 105 51 32 52 8 88 -86 131 -53 23 -63 32 -63 53 0 39 41 44 91 9
36 -25 41 -26 55 -12 50 50 -95 114 -173 76z"/>
<path d="M2260 330 c0 -6 20 -48 44 -94 25 -48 47 -105 51 -132 11 -79 14 -84
45 -84 32 0 33 3 45 90 3 25 26 84 50 133 25 48 45 89 45 92 0 3 -13 5 -28 5
-33 0 -51 -17 -81 -77 -12 -24 -25 -43 -30 -43 -5 0 -23 23 -41 50 -18 28 -41
55 -51 60 -23 13 -49 13 -49 0z"/>
<path d="M2650 333 c-24 -9 -52 -36 -61 -61 -17 -45 42 -112 99 -112 27 0 72
-38 72 -61 0 -26 -50 -25 -109 2 -50 22 -67 15 -57 -24 14 -58 149 -76 200
-28 53 50 33 114 -46 146 -23 9 -55 26 -70 37 -23 16 -26 23 -17 34 16 20 53
17 101 -7 29 -15 43 -18 51 -10 15 15 0 39 -43 69 -32 21 -85 28 -120 15z"/>
<path d="M2880 330 c-22 -14 0 -44 36 -48 46 -5 54 -25 54 -133 0 -117 4 -129
40 -129 36 0 40 12 40 129 0 108 8 128 54 133 36 4 58 34 36 48 -20 13 -240
13 -260 0z"/>
<path d="M3210 180 l0 -160 94 0 c64 0 97 4 104 13 19 23 -4 39 -64 46 -58 6
-59 7 -62 38 -3 34 4 39 73 45 19 2 30 9 30 18 0 9 -11 16 -30 18 -69 6 -76
11 -73 45 3 31 4 32 61 37 60 6 85 23 65 47 -7 9 -40 13 -104 13 l-94 0 0
-160z"/>
<path d="M3510 314 c-11 -28 -13 -235 -4 -271 4 -13 12 -23 20 -23 23 0 34 36
34 110 l0 72 48 -51 c26 -28 53 -51 58 -51 15 0 37 20 68 64 34 46 46 36 46
-41 0 -61 14 -103 34 -103 22 0 26 23 26 159 0 192 -20 205 -115 76 -55 -75
-57 -76 -76 -59 -11 10 -29 34 -41 53 -25 42 -68 91 -80 91 -5 0 -13 -12 -18
-26z"/>
</g>
</svg>
