<?xml version="1.0" encoding="UTF-8"?>
<!DOCTYPE svg PUBLIC "-//W3C//DTD SVG 1.1//EN" "http://www.w3.org/Graphics/SVG/1.1/DTD/svg11.dtd">
<svg xmlns="http://www.w3.org/2000/svg" version="1.1" width="500px" height="500px" style="shape-rendering:geometricPrecision; text-rendering:geometricPrecision; image-rendering:optimizeQuality; fill-rule:evenodd; clip-rule:evenodd" xmlns:xlink="http://www.w3.org/1999/xlink">
<g><path style="opacity:0.999" fill="#444444" d="M 251.5,129.5 C 258.822,131.451 259.156,134.118 252.5,137.5C 247.691,135.257 247.357,132.591 251.5,129.5 Z"/></g>
<g><path style="opacity:1" fill="#262626" d="M 234.5,140.5 C 233.711,140.783 233.044,141.283 232.5,142C 233.793,142.49 235.127,142.657 236.5,142.5C 236.19,145.713 236.523,148.713 237.5,151.5C 237.46,154.881 237.793,158.214 238.5,161.5C 239.167,162.167 239.833,162.833 240.5,163.5C 237.531,165.006 234.698,164.673 232,162.5C 230.736,156.255 229.903,149.922 229.5,143.5C 228.022,143.762 226.689,143.429 225.5,142.5C 230.245,141.025 232.245,137.692 231.5,132.5C 233.5,132.5 235.5,132.5 237.5,132.5C 237.982,135.831 236.982,138.497 234.5,140.5 Z"/></g>
<g><path style="opacity:0.999" fill="#222222" d="M 267.5,133.5 C 269.167,133.5 270.833,133.5 272.5,133.5C 272.5,134.833 272.5,136.167 272.5,137.5C 272.573,139.027 271.906,140.027 270.5,140.5C 269.711,140.783 269.044,141.283 268.5,142C 269.793,142.49 271.127,142.657 272.5,142.5C 274.167,142.5 275.833,142.5 277.5,142.5C 275.735,143.461 273.735,143.795 271.5,143.5C 271.5,144.5 271.5,145.5 271.5,146.5C 271.5,151.833 271.5,157.167 271.5,162.5C 271.833,163.167 272.167,163.833 272.5,164.5C 268.51,165.384 265.677,164.051 264,160.5C 263.924,156.181 264.091,151.848 264.5,147.5C 265.451,146.081 265.784,144.415 265.5,142.5C 263.833,142.5 262.167,142.5 260.5,142.5C 265.376,141.611 267.71,138.611 267.5,133.5 Z"/></g>
<g><path style="opacity:0.592" fill="#8d8d8d" d="M 267.5,133.5 C 269.265,132.539 271.265,132.205 273.5,132.5C 273.784,134.415 273.451,136.081 272.5,137.5C 272.5,136.167 272.5,134.833 272.5,133.5C 270.833,133.5 269.167,133.5 267.5,133.5 Z"/></g>
<g><path style="opacity:1" fill="#161616" d="M 131.5,138.5 C 134.157,138.162 136.49,138.829 138.5,140.5C 141.021,145.39 143.355,150.39 145.5,155.5C 150.392,153.22 155.392,151.22 160.5,149.5C 164.523,150.353 166.856,152.853 167.5,157C 166.87,158.892 165.87,160.559 164.5,162C 159.671,163.884 155.005,166.051 150.5,168.5C 154.179,174.359 155.679,180.693 155,187.5C 152.083,189.393 148.916,189.893 145.5,189C 142.781,183.725 139.948,178.558 137,173.5C 132.305,175.599 127.472,177.265 122.5,178.5C 116.905,177.422 115.072,174.088 117,168.5C 122.12,165.359 127.287,162.359 132.5,159.5C 129.032,153.942 127.532,147.942 128,141.5C 129.145,140.364 130.312,139.364 131.5,138.5 Z"/></g>
<g><path style="opacity:0.035" fill="#dfdfdf" d="M 270.5,140.5 C 271.167,141.167 271.833,141.833 272.5,142.5C 271.127,142.657 269.793,142.49 268.5,142C 269.044,141.283 269.711,140.783 270.5,140.5 Z"/></g>
<g><path style="opacity:0.999" fill="#0d0d0d" d="M 256.5,143.5 C 255.51,149.645 255.177,155.978 255.5,162.5C 253.5,162.5 251.5,162.5 249.5,162.5C 249.5,158.5 249.5,154.5 249.5,150.5C 249.037,147.518 248.704,144.518 248.5,141.5C 251.698,140.964 254.365,141.631 256.5,143.5 Z"/></g>
<g><path style="opacity:0.31" fill="#b0b0b0" d="M 260.5,142.5 C 262.167,142.5 263.833,142.5 265.5,142.5C 265.784,144.415 265.451,146.081 264.5,147.5C 264.5,146.167 264.5,144.833 264.5,143.5C 262.901,143.768 261.568,143.434 260.5,142.5 Z"/></g>
<g><path style="opacity:0.596" fill="#8d8d8d" d="M 207.5,143.5 C 208.833,144.167 210.167,144.833 211.5,145.5C 208.812,145.166 206.479,145.832 204.5,147.5C 204.5,146.167 203.833,145.5 202.5,145.5C 203.78,144.069 205.447,143.402 207.5,143.5 Z"/></g>
<g><path style="opacity:0.243" fill="#959595" d="M 234.5,140.5 C 237.358,141.166 240.358,141.833 243.5,142.5C 241.604,143.466 239.604,143.799 237.5,143.5C 237.5,146.167 237.5,148.833 237.5,151.5C 236.523,148.713 236.19,145.713 236.5,142.5C 235.127,142.657 233.793,142.49 232.5,142C 233.044,141.283 233.711,140.783 234.5,140.5 Z"/></g>
<g><path style="opacity:0.059" fill="#dcdcdc" d="M 277.5,142.5 C 278.043,142.56 278.376,142.893 278.5,143.5C 275.901,144.135 273.568,145.135 271.5,146.5C 271.5,145.5 271.5,144.5 271.5,143.5C 273.735,143.795 275.735,143.461 277.5,142.5 Z"/></g>
<g><path style="opacity:0.999" fill="#2c2c2c" d="M 207.5,143.5 C 220.115,141.945 225.282,147.278 223,159.5C 221.437,162.728 218.937,164.895 215.5,166C 200.896,169.384 194.73,163.884 197,149.5C 198.451,147.536 200.284,146.203 202.5,145.5C 203.833,145.5 204.5,146.167 204.5,147.5C 202.609,153.551 203.609,159.051 207.5,164C 213.379,165.46 216.379,163.127 216.5,157C 216.549,152.288 214.883,148.455 211.5,145.5C 210.167,144.833 208.833,144.167 207.5,143.5 Z M 211.5,145.5 C 214.883,148.455 216.549,152.288 216.5,157C 216.379,163.127 213.379,165.46 207.5,164C 203.609,159.051 202.609,153.551 204.5,147.5C 206.479,145.832 208.812,145.166 211.5,145.5 Z"/></g>
<g><path style="opacity:1" fill="#505050" d="M 302.5,146.5 C 300.901,146.232 299.568,146.566 298.5,147.5C 296.598,146.489 294.598,146.322 292.5,147C 289.46,151.11 286.46,151.276 283.5,147.5C 284.09,146.201 285.09,145.368 286.5,145C 291.167,144.333 295.833,144.333 300.5,145C 301.416,145.278 302.082,145.778 302.5,146.5 Z"/></g>
<g><path style="opacity:1" fill="#212121" d="M 302.5,146.5 C 304.922,147.692 305.922,149.692 305.5,152.5C 304.614,157.814 303.947,163.147 303.5,168.5C 301.708,168.634 300.042,168.301 298.5,167.5C 297.833,165.5 297.167,163.5 296.5,161.5C 296.433,160.041 296.766,158.708 297.5,157.5C 298.72,155.95 298.72,154.284 297.5,152.5C 298.301,150.958 298.634,149.292 298.5,147.5C 299.568,146.566 300.901,146.232 302.5,146.5 Z"/></g>
<g><path style="opacity:1" fill="#545454" d="M 176.5,154.5 C 176.649,153.448 176.483,152.448 176,151.5C 175.184,152.823 174.017,153.489 172.5,153.5C 175.943,149.715 180.276,148.215 185.5,149C 188.023,149.518 190.023,150.852 191.5,153C 189.966,155.381 187.966,155.881 185.5,154.5C 182.539,149.472 179.539,149.472 176.5,154.5 Z"/></g>
<g><path style="opacity:1" fill="#353535" d="M 313.5,150.5 C 315.099,150.232 316.432,150.566 317.5,151.5C 317.343,152.873 317.51,154.207 318,155.5C 320.479,158.069 323.146,160.402 326,162.5C 328.729,171.767 325.229,175.267 315.5,173C 309.044,171.728 306.71,168.062 308.5,162C 309.5,161.333 310.5,161.333 311.5,162C 313.121,164.166 313.955,166.666 314,169.5C 317.256,172.523 319.756,172.023 321.5,168C 317.688,164.518 314.188,160.685 311,156.5C 310.039,153.625 310.872,151.625 313.5,150.5 Z"/></g>
<g><path style="opacity:0.999" fill="#272727" d="M 176.5,154.5 C 176.734,158.769 177.901,162.769 180,166.5C 181.583,167.971 183.417,168.971 185.5,169.5C 187.698,169.409 188.031,170.075 186.5,171.5C 174.112,174.114 168.779,169.114 170.5,156.5C 171.906,156.027 172.573,155.027 172.5,153.5C 174.017,153.489 175.184,152.823 176,151.5C 176.483,152.448 176.649,153.448 176.5,154.5 Z"/></g>
<g><path style="opacity:0.873" fill="#767676" d="M 313.5,150.5 C 315.966,149.366 318.633,149.199 321.5,150C 323.32,150.2 324.653,151.034 325.5,152.5C 324.508,152.328 323.842,152.662 323.5,153.5C 321.858,151.919 319.858,151.253 317.5,151.5C 316.432,150.566 315.099,150.232 313.5,150.5 Z"/></g>
<g><path style="opacity:1" fill="#4d4d4d" d="M 325.5,152.5 C 328.336,153.995 329.336,156.161 328.5,159C 324.68,159.342 323.014,157.509 323.5,153.5C 323.842,152.662 324.508,152.328 325.5,152.5 Z"/></g>
<g><path style="opacity:0.812" fill="#727272" d="M 297.5,152.5 C 298.72,154.284 298.72,155.95 297.5,157.5C 297.5,156.5 297.5,155.5 297.5,154.5C 295.035,154.767 292.701,155.434 290.5,156.5C 289.448,154.744 287.781,154.077 285.5,154.5C 289.336,153.622 293.336,152.956 297.5,152.5 Z"/></g>
<g><path style="opacity:1" fill="#242424" d="M 285.5,154.5 C 287.781,154.077 289.448,154.744 290.5,156.5C 287.233,160.763 288.233,163.43 293.5,164.5C 293.167,165.167 292.833,165.833 292.5,166.5C 288.279,167.192 284.613,166.192 281.5,163.5C 279.41,158.905 280.743,155.905 285.5,154.5 Z"/></g>
<g><path style="opacity:0.443" fill="#909090" d="M 172.5,153.5 C 172.573,155.027 171.906,156.027 170.5,156.5C 170.427,154.973 171.094,153.973 172.5,153.5 Z"/></g>
<g><path style="opacity:0.604" fill="#8f8f8f" d="M 272.5,164.5 C 272.167,163.833 271.833,163.167 271.5,162.5C 273.017,162.489 274.184,161.823 275,160.5C 275.543,158.369 276.376,156.369 277.5,154.5C 278.218,157.242 277.718,159.909 276,162.5C 275.184,163.823 274.017,164.489 272.5,164.5 Z"/></g>
<g><path style="opacity:0.529" fill="#868686" d="M 240.5,163.5 C 239.833,162.833 239.167,162.167 238.5,161.5C 239.675,161.719 240.675,161.386 241.5,160.5C 242.18,158.111 243.014,155.778 244,153.5C 245.245,157.765 244.078,161.098 240.5,163.5 Z"/></g>
<g><path style="opacity:0.094" fill="#cacaca" d="M 256.5,143.5 C 256.5,150.167 256.5,156.833 256.5,163.5C 253.833,163.5 251.167,163.5 248.5,163.5C 248.182,158.968 248.515,154.634 249.5,150.5C 249.5,154.5 249.5,158.5 249.5,162.5C 251.5,162.5 253.5,162.5 255.5,162.5C 255.177,155.978 255.51,149.645 256.5,143.5 Z"/></g>
<g><path style="opacity:0.894" fill="#6d6d6d" d="M 296.5,161.5 C 297.167,163.5 297.833,165.5 298.5,167.5C 297.069,167.119 296.236,166.119 296,164.5C 295.184,165.823 294.017,166.489 292.5,166.5C 292.833,165.833 293.167,165.167 293.5,164.5C 294.167,163.167 295.167,162.167 296.5,161.5 Z"/></g>
<g><path style="opacity:0.914" fill="#747474" d="M 186.5,171.5 C 188.031,170.075 187.698,169.409 185.5,169.5C 189.399,168.089 191.733,165.256 192.5,161C 192.85,159.743 193.517,159.409 194.5,160C 194.144,165.577 191.477,169.41 186.5,171.5 Z"/></g>
<g><path style="opacity:1" fill="#323232" d="M 242.5,181.5 C 259.99,180.655 269.323,188.988 270.5,206.5C 268.856,223.653 259.523,231.486 242.5,230C 231.488,226.138 225.488,218.305 224.5,206.5C 225.173,194.183 231.173,185.849 242.5,181.5 Z M 242.5,186.5 C 259.576,186.08 267.076,194.413 265,211.5C 259.853,225.161 250.687,228.994 237.5,223C 228.267,213.842 227.1,203.676 234,192.5C 236.637,190.109 239.47,188.109 242.5,186.5 Z"/></g>
<g><path style="opacity:1" fill="#303030" d="M 183.5,212.5 C 202.112,210.794 212.778,219.127 215.5,237.5C 214.453,251.214 207.12,258.547 193.5,259.5C 177.921,258.088 169.588,249.588 168.5,234C 168.715,223.378 173.715,216.211 183.5,212.5 Z M 186.5,216.5 C 205.089,217.707 212.589,227.374 209,245.5C 203.334,254.427 195.501,256.927 185.5,253C 174.901,247.534 171.068,239.034 174,227.5C 176.505,221.822 180.671,218.155 186.5,216.5 Z"/></g>
<g><path style="opacity:1" fill="#2e2e2e" d="M 302.5,212.5 C 322.929,210.763 332.096,220.096 330,240.5C 328.645,245.38 326.145,249.547 322.5,253C 324.74,253.977 327.073,254.477 329.5,254.5C 328.818,279.03 319.151,299.197 300.5,315C 295.145,318.499 290.145,317.999 285.5,313.5C 272.164,318.666 260.831,315.833 251.5,305C 248.833,304.333 246.167,304.333 243.5,305C 229.131,319.945 214.631,320.112 200,305.5C 193.729,294.298 194.062,283.298 201,272.5C 204.517,268.816 208.684,266.149 213.5,264.5C 222.37,240.233 239.036,232.4 263.5,241C 266,242.833 268.5,244.667 271,246.5C 271.494,244.866 271.66,243.199 271.5,241.5C 275.5,241.5 279.5,241.5 283.5,241.5C 283.096,227.267 289.429,217.6 302.5,212.5 Z M 306.5,216.5 C 318.304,216.471 324.97,222.304 326.5,234C 325.734,240.031 323.234,245.198 319,249.5C 316.977,247.231 316.144,244.564 316.5,241.5C 307.167,241.5 297.833,241.5 288.5,241.5C 287.586,228.093 293.586,219.76 306.5,216.5 Z M 244.5,241.5 C 253.903,241.243 261.903,244.41 268.5,251C 265.664,253.584 262.331,254.751 258.5,254.5C 259.285,275.371 266.785,293.371 281,308.5C 281.591,309.483 281.257,310.15 280,310.5C 268.629,313.067 259.796,309.401 253.5,299.5C 249.5,300.833 245.5,300.833 241.5,299.5C 233.341,311.607 222.674,314.44 209.5,308C 197.023,296.998 196.356,285.331 207.5,273C 210.726,270.425 214.393,268.925 218.5,268.5C 221.092,253.576 229.758,244.576 244.5,241.5 Z M 276.5,245.5 C 288.5,245.5 300.5,245.5 312.5,245.5C 313.602,251.94 317.268,256.273 323.5,258.5C 324.253,266.84 322.753,274.84 319,282.5C 313.781,294.119 306.281,303.953 296.5,312C 294.833,312.667 293.167,312.667 291.5,312C 274.647,298.128 265.313,280.294 263.5,258.5C 270.706,257.121 275.04,252.787 276.5,245.5 Z M 297.5,272.5 C 300.287,273.477 303.287,273.81 306.5,273.5C 306.5,275.833 306.5,278.167 306.5,280.5C 303.5,280.5 300.5,280.5 297.5,280.5C 297.5,283.5 297.5,286.5 297.5,289.5C 295.167,289.5 292.833,289.5 290.5,289.5C 290.5,286.5 290.5,283.5 290.5,280.5C 287.5,280.5 284.5,280.5 281.5,280.5C 281.5,278.167 281.5,275.833 281.5,273.5C 284.713,273.81 287.713,273.477 290.5,272.5C 290.5,269.833 290.5,267.167 290.5,264.5C 292.833,264.5 295.167,264.5 297.5,264.5C 297.5,267.167 297.5,269.833 297.5,272.5 Z"/></g>
<g><path style="opacity:1" fill="#161616" d="M 301.5,268.5 C 304.287,269.477 307.287,269.81 310.5,269.5C 310.5,274.5 310.5,279.5 310.5,284.5C 307.5,284.5 304.5,284.5 301.5,284.5C 301.5,287.5 301.5,290.5 301.5,293.5C 296.5,293.5 291.5,293.5 286.5,293.5C 286.5,290.5 286.5,287.5 286.5,284.5C 283.5,284.5 280.5,284.5 277.5,284.5C 277.5,279.5 277.5,274.5 277.5,269.5C 280.713,269.81 283.713,269.477 286.5,268.5C 286.5,265.5 286.5,262.5 286.5,259.5C 291.5,259.5 296.5,259.5 301.5,259.5C 301.5,262.5 301.5,265.5 301.5,268.5 Z M 297.5,272.5 C 300.287,273.477 303.287,273.81 306.5,273.5C 306.5,275.833 306.5,278.167 306.5,280.5C 303.5,280.5 300.5,280.5 297.5,280.5C 297.5,283.5 297.5,286.5 297.5,289.5C 295.167,289.5 292.833,289.5 290.5,289.5C 290.5,286.5 290.5,283.5 290.5,280.5C 287.5,280.5 284.5,280.5 281.5,280.5C 281.5,278.167 281.5,275.833 281.5,273.5C 284.713,273.81 287.713,273.477 290.5,272.5C 290.5,269.833 290.5,267.167 290.5,264.5C 292.833,264.5 295.167,264.5 297.5,264.5C 297.5,267.167 297.5,269.833 297.5,272.5 Z"/></g>
<g><path style="opacity:0.242" fill="#c1c1c1" d="M 286.5,268.5 C 283.713,269.477 280.713,269.81 277.5,269.5C 277.5,274.5 277.5,279.5 277.5,284.5C 276.512,279.36 276.179,274.026 276.5,268.5C 279.833,268.5 283.167,268.5 286.5,268.5 Z"/></g>
<g><path style="opacity:0.244" fill="#c1c1c1" d="M 301.5,268.5 C 304.833,268.5 308.167,268.5 311.5,268.5C 311.821,274.026 311.488,279.36 310.5,284.5C 310.5,279.5 310.5,274.5 310.5,269.5C 307.287,269.81 304.287,269.477 301.5,268.5 Z"/></g>
<g><path style="opacity:0.501" fill="#7c7c7c" d="M 290.5,272.5 C 287.713,273.477 284.713,273.81 281.5,273.5C 281.5,275.833 281.5,278.167 281.5,280.5C 280.527,278.052 280.194,275.385 280.5,272.5C 283.833,272.5 287.167,272.5 290.5,272.5 Z"/></g>
<g><path style="opacity:0.5" fill="#919191" d="M 297.5,272.5 C 300.833,272.5 304.167,272.5 307.5,272.5C 307.806,275.385 307.473,278.052 306.5,280.5C 306.5,278.167 306.5,275.833 306.5,273.5C 303.287,273.81 300.287,273.477 297.5,272.5 Z"/></g>
<g><path style="opacity:1" fill="#353535" d="M 174.5,342.5 C 175.946,341.387 177.613,341.22 179.5,342C 181.053,344.655 182.22,347.488 183,350.5C 184.069,347.792 185.236,345.125 186.5,342.5C 188.167,341.167 189.833,341.167 191.5,342.5C 189.593,347.391 187.593,352.224 185.5,357C 183.741,357.798 182.074,357.631 180.5,356.5C 178.67,351.65 176.67,346.984 174.5,342.5 Z"/></g>
<g><path style="opacity:1" fill="#181818" d="M 203.5,341.5 C 203.5,342.5 203.5,343.5 203.5,344.5C 201.167,344.5 198.833,344.5 196.5,344.5C 196.5,345.833 196.5,347.167 196.5,348.5C 204.5,349.167 204.5,349.833 196.5,350.5C 196.5,351.833 196.5,353.167 196.5,354.5C 198.833,354.5 201.167,354.5 203.5,354.5C 203.5,355.5 203.5,356.5 203.5,357.5C 199.833,357.5 196.167,357.5 192.5,357.5C 192.5,352.167 192.5,346.833 192.5,341.5C 196.167,341.5 199.833,341.5 203.5,341.5 Z"/></g>
<g><path style="opacity:1" fill="#000000" d="M 206.5,341.5 C 210.833,341.5 215.167,341.5 219.5,341.5C 219.5,342.5 219.5,343.5 219.5,344.5C 217.833,344.5 216.167,344.5 214.5,344.5C 214.5,348.833 214.5,353.167 214.5,357.5C 213.5,357.5 212.5,357.5 211.5,357.5C 211.5,353.167 211.5,348.833 211.5,344.5C 209.833,344.5 208.167,344.5 206.5,344.5C 206.5,343.5 206.5,342.5 206.5,341.5 Z"/></g>
<g><path style="opacity:1" fill="#181818" d="M 232.5,341.5 C 232.5,342.5 232.5,343.5 232.5,344.5C 230.167,344.5 227.833,344.5 225.5,344.5C 225.5,345.833 225.5,347.167 225.5,348.5C 233.5,349.167 233.5,349.833 225.5,350.5C 225.5,351.833 225.5,353.167 225.5,354.5C 227.833,354.5 230.167,354.5 232.5,354.5C 232.5,355.5 232.5,356.5 232.5,357.5C 228.833,357.5 225.167,357.5 221.5,357.5C 221.5,352.167 221.5,346.833 221.5,341.5C 225.167,341.5 228.833,341.5 232.5,341.5 Z"/></g>
<g><path style="opacity:1" fill="#292929" d="M 242.5,353.5 C 241.791,352.596 240.791,352.263 239.5,352.5C 239.5,354.167 239.5,355.833 239.5,357.5C 238.167,357.5 236.833,357.5 235.5,357.5C 235.5,352.167 235.5,346.833 235.5,341.5C 239.182,341.335 242.848,341.501 246.5,342C 248.516,343.028 249.516,344.695 249.5,347C 249.121,349.092 248.454,351.092 247.5,353C 250.413,356.692 249.413,358.026 244.5,357C 243.177,356.184 242.511,355.017 242.5,353.5 Z M 244.5,345.5 C 244.5,346.5 244.5,347.5 244.5,348.5C 243.167,348.5 241.833,348.5 240.5,348.5C 240.5,347.5 240.5,346.5 240.5,345.5C 241.833,345.5 243.167,345.5 244.5,345.5 Z"/></g>
<g><path style="opacity:1" fill="#383838" d="M 251.5,341.5 C 253.167,341.5 254.833,341.5 256.5,341.5C 256.5,346.833 256.5,352.167 256.5,357.5C 254.833,357.5 253.167,357.5 251.5,357.5C 251.5,352.167 251.5,346.833 251.5,341.5 Z"/></g>
<g><path style="opacity:1" fill="#1e1e1e" d="M 259.5,341.5 C 264.267,342.088 267.434,344.755 269,349.5C 269.497,346.854 269.664,344.187 269.5,341.5C 270.833,341.5 272.167,341.5 273.5,341.5C 273.5,346.833 273.5,352.167 273.5,357.5C 272.127,357.657 270.793,357.49 269.5,357C 267.667,354.5 265.833,352 264,349.5C 263.503,352.146 263.336,354.813 263.5,357.5C 262.167,357.5 260.833,357.5 259.5,357.5C 259.5,352.167 259.5,346.833 259.5,341.5 Z"/></g>
<g><path style="opacity:0.999" fill="#2c2c2c" d="M 280.5,341.5 C 282.604,341.201 284.604,341.534 286.5,342.5C 288.095,347.52 290.095,352.353 292.5,357C 289.285,357.589 286.285,357.089 283.5,355.5C 280.933,356.664 278.266,357.33 275.5,357.5C 277.167,352.167 278.833,346.833 280.5,341.5 Z M 284.5,348.5 C 284.5,348.833 284.5,349.167 284.5,349.5C 283.833,352.167 283.167,352.167 282.5,349.5C 283.167,349.167 283.833,348.833 284.5,348.5 Z"/></g>
<g><path style="opacity:1" fill="#222222" d="M 300.5,353.5 C 299.791,352.596 298.791,352.263 297.5,352.5C 297.5,354.167 297.5,355.833 297.5,357.5C 296.167,357.5 294.833,357.5 293.5,357.5C 293.5,352.167 293.5,346.833 293.5,341.5C 297.182,341.335 300.848,341.501 304.5,342C 308.367,345.418 308.367,348.751 304.5,352C 309.283,357.213 308.283,358.713 301.5,356.5C 300.873,355.583 300.539,354.583 300.5,353.5 Z M 302.5,345.5 C 302.5,346.5 302.5,347.5 302.5,348.5C 301.167,348.5 299.833,348.5 298.5,348.5C 298.5,347.5 298.5,346.5 298.5,345.5C 299.833,345.5 301.167,345.5 302.5,345.5 Z"/></g>
<g><path style="opacity:0.999" fill="#363636" d="M 307.5,342.5 C 309.364,341.207 311.364,341.207 313.5,342.5C 314.083,344.002 314.916,345.335 316,346.5C 317.149,342.382 319.649,341.048 323.5,342.5C 320.231,347.053 318.564,352.053 318.5,357.5C 316.833,357.5 315.167,357.5 313.5,357.5C 313.416,351.675 311.416,346.675 307.5,342.5 Z"/></g>
<g><path style="opacity:0.479" fill="#848484" d="M 206.5,341.5 C 206.5,342.5 206.5,343.5 206.5,344.5C 208.167,344.5 209.833,344.5 211.5,344.5C 211.5,348.833 211.5,353.167 211.5,357.5C 210.517,353.702 210.183,349.702 210.5,345.5C 208.833,345.5 207.167,345.5 205.5,345.5C 205.232,343.901 205.566,342.568 206.5,341.5 Z"/></g>
<g><path style="opacity:0.127" fill="#cbcbcb" d="M 219.5,341.5 C 220.434,342.568 220.768,343.901 220.5,345.5C 218.833,345.5 217.167,345.5 215.5,345.5C 215.817,349.702 215.483,353.702 214.5,357.5C 214.5,353.167 214.5,348.833 214.5,344.5C 216.167,344.5 217.833,344.5 219.5,344.5C 219.5,343.5 219.5,342.5 219.5,341.5 Z"/></g>
<g><path style="opacity:0.261" fill="#c6c6c6" d="M 244.5,345.5 C 243.167,345.5 241.833,345.5 240.5,345.5C 240.5,346.5 240.5,347.5 240.5,348.5C 241.833,348.5 243.167,348.5 244.5,348.5C 243.081,349.451 241.415,349.784 239.5,349.5C 239.5,347.833 239.5,346.167 239.5,344.5C 241.415,344.216 243.081,344.549 244.5,345.5 Z"/></g>
<g><path style="opacity:0.141" fill="#d4d4d4" d="M 284.5,348.5 C 283.833,348.833 283.167,349.167 282.5,349.5C 282.711,347.576 283.377,347.243 284.5,348.5 Z"/></g>
<g><path style="opacity:0.035" fill="#dcdcdc" d="M 302.5,345.5 C 301.167,345.5 299.833,345.5 298.5,345.5C 298.5,346.5 298.5,347.5 298.5,348.5C 299.833,348.5 301.167,348.5 302.5,348.5C 301.081,349.451 299.415,349.784 297.5,349.5C 297.5,347.833 297.5,346.167 297.5,344.5C 299.415,344.216 301.081,344.549 302.5,345.5 Z"/></g>
<g><path style="opacity:0.416" fill="#a9a9a9" d="M 203.5,341.5 C 204.434,342.568 204.768,343.901 204.5,345.5C 202.076,345.192 199.743,345.526 197.5,346.5C 199.396,347.466 201.396,347.799 203.5,347.5C 203.5,348.833 203.5,350.167 203.5,351.5C 201.396,351.201 199.396,351.534 197.5,352.5C 199.743,353.474 202.076,353.808 204.5,353.5C 204.768,355.099 204.434,356.432 203.5,357.5C 203.5,356.5 203.5,355.5 203.5,354.5C 201.167,354.5 198.833,354.5 196.5,354.5C 196.5,353.167 196.5,351.833 196.5,350.5C 204.5,349.833 204.5,349.167 196.5,348.5C 196.5,347.167 196.5,345.833 196.5,344.5C 198.833,344.5 201.167,344.5 203.5,344.5C 203.5,343.5 203.5,342.5 203.5,341.5 Z"/></g>
<g><path style="opacity:0.42" fill="#a9a9a9" d="M 232.5,341.5 C 233.434,342.568 233.768,343.901 233.5,345.5C 231.076,345.192 228.743,345.526 226.5,346.5C 228.396,347.466 230.396,347.799 232.5,347.5C 232.5,348.833 232.5,350.167 232.5,351.5C 230.396,351.201 228.396,351.534 226.5,352.5C 228.743,353.474 231.076,353.808 233.5,353.5C 233.768,355.099 233.434,356.432 232.5,357.5C 232.5,356.5 232.5,355.5 232.5,354.5C 230.167,354.5 227.833,354.5 225.5,354.5C 225.5,353.167 225.5,351.833 225.5,350.5C 233.5,349.833 233.5,349.167 225.5,348.5C 225.5,347.167 225.5,345.833 225.5,344.5C 227.833,344.5 230.167,344.5 232.5,344.5C 232.5,343.5 232.5,342.5 232.5,341.5 Z"/></g>
<g><path style="opacity:0.625" fill="#858585" d="M 282.5,349.5 C 283.167,352.167 283.833,352.167 284.5,349.5C 285.404,350.209 285.737,351.209 285.5,352.5C 284.167,352.5 282.833,352.5 281.5,352.5C 281.263,351.209 281.596,350.209 282.5,349.5 Z"/></g>
<g><path style="opacity:0.31" fill="#bdbdbd" d="M 242.5,353.5 C 241.022,354.448 240.022,355.781 239.5,357.5C 239.5,355.833 239.5,354.167 239.5,352.5C 240.791,352.263 241.791,352.596 242.5,353.5 Z"/></g>
<g><path style="opacity:0.054" fill="#e9e9e9" d="M 300.5,353.5 C 299.022,354.448 298.022,355.781 297.5,357.5C 297.5,355.833 297.5,354.167 297.5,352.5C 298.791,352.263 299.791,352.596 300.5,353.5 Z"/></g>
<g><path style="opacity:0.999" fill="#3b3b3b" d="M 203.5,376.5 C 203.5,375.5 203.5,374.5 203.5,373.5C 204.5,373.5 205.5,373.5 206.5,373.5C 208.06,375.635 209.727,375.802 211.5,374C 209.975,372.991 208.308,372.491 206.5,372.5C 202.189,370.114 201.523,366.947 204.5,363C 210.134,360.158 213.8,361.658 215.5,367.5C 213.088,367.669 210.921,367.003 209,365.5C 208.5,365.833 208,366.167 207.5,366.5C 209.988,368.069 212.488,369.736 215,371.5C 216.407,376.679 214.407,379.346 209,379.5C 206.601,379.387 204.768,378.387 203.5,376.5 Z"/></g>
<g><path style="opacity:1" fill="#333333" d="M 216.5,362.5 C 220.73,361.563 223.23,363.229 224,367.5C 225.483,363.335 228.316,361.835 232.5,363C 229.19,367.767 227.19,372.933 226.5,378.5C 225.167,378.5 223.833,378.5 222.5,378.5C 222.66,376.801 222.494,375.134 222,373.5C 220.14,369.78 218.307,366.114 216.5,362.5 Z"/></g>
<g><path style="opacity:1" fill="#3a3a3a" d="M 236.5,378.5 C 236.027,377.094 235.027,376.427 233.5,376.5C 233.5,375.833 233.5,375.167 233.5,374.5C 234.705,373.314 236.039,373.314 237.5,374.5C 238.985,375.935 240.318,375.768 241.5,374C 240.437,372.812 239.103,372.312 237.5,372.5C 232.937,370.316 231.937,367.15 234.5,363C 239.875,360.347 243.875,361.681 246.5,367C 243.86,367.839 241.527,367.339 239.5,365.5C 238.692,365.808 238.025,366.308 237.5,367C 239.731,368.147 242.065,369.147 244.5,370C 247.539,373.805 246.872,376.805 242.5,379C 240.402,379.678 238.402,379.511 236.5,378.5 Z"/></g>
<g><path style="opacity:1" fill="#121212" d="M 253.5,378.5 C 253.5,374.167 253.5,369.833 253.5,365.5C 251.5,365.5 249.5,365.5 247.5,365.5C 247.5,364.5 247.5,363.5 247.5,362.5C 252.167,362.5 256.833,362.5 261.5,362.5C 261.5,363.833 261.5,365.167 261.5,366.5C 259.833,366.5 258.167,366.5 256.5,366.5C 256.5,370.5 256.5,374.5 256.5,378.5C 255.5,378.5 254.5,378.5 253.5,378.5 Z"/></g>
<g><path style="opacity:1" fill="#121212" d="M 274.5,365.5 C 272.167,365.5 269.833,365.5 267.5,365.5C 267.5,366.833 267.5,368.167 267.5,369.5C 275.5,370.167 275.5,370.833 267.5,371.5C 267.5,372.833 267.5,374.167 267.5,375.5C 269.833,375.5 272.167,375.5 274.5,375.5C 274.5,376.5 274.5,377.5 274.5,378.5C 270.833,378.5 267.167,378.5 263.5,378.5C 263.5,373.167 263.5,367.833 263.5,362.5C 267.167,362.5 270.833,362.5 274.5,362.5C 274.5,363.5 274.5,364.5 274.5,365.5 Z"/></g>
<g><path style="opacity:0.999" fill="#232323" d="M 289.5,366.5 C 290.906,366.027 291.573,365.027 291.5,363.5C 292.568,362.566 293.901,362.232 295.5,362.5C 295.5,367.833 295.5,373.167 295.5,378.5C 294.167,378.5 292.833,378.5 291.5,378.5C 291.663,376.143 291.497,373.81 291,371.5C 288.894,376.274 286.394,376.607 283.5,372.5C 283.539,371.244 283.039,370.244 282,369.5C 281.502,372.482 281.335,375.482 281.5,378.5C 280.167,378.5 278.833,378.5 277.5,378.5C 277.5,373.167 277.5,367.833 277.5,362.5C 279.288,362.215 280.955,362.548 282.5,363.5C 283.757,365.679 285.257,367.679 287,369.5C 287.377,368.058 288.21,367.058 289.5,366.5 Z"/></g>
<g><path style="opacity:0.518" fill="#8c8c8c" d="M 291.5,363.5 C 291.573,365.027 290.906,366.027 289.5,366.5C 289.427,364.973 290.094,363.973 291.5,363.5 Z"/></g>
<g><path style="opacity:0.743" fill="#545454" d="M 247.5,365.5 C 249.5,365.5 251.5,365.5 253.5,365.5C 253.5,369.833 253.5,374.167 253.5,378.5C 252.517,374.702 252.183,370.702 252.5,366.5C 250.585,366.784 248.919,366.451 247.5,365.5 Z"/></g>
<g><path style="opacity:0.302" fill="#bcbcbc" d="M 274.5,365.5 C 272.631,366.165 270.631,366.831 268.5,367.5C 270.396,368.466 272.396,368.799 274.5,368.5C 274.5,369.833 274.5,371.167 274.5,372.5C 272.396,372.201 270.396,372.534 268.5,373.5C 270.743,374.474 273.076,374.808 275.5,374.5C 275.768,376.099 275.434,377.432 274.5,378.5C 274.5,377.5 274.5,376.5 274.5,375.5C 272.167,375.5 269.833,375.5 267.5,375.5C 267.5,374.167 267.5,372.833 267.5,371.5C 275.5,370.833 275.5,370.167 267.5,369.5C 267.5,368.167 267.5,366.833 267.5,365.5C 269.833,365.5 272.167,365.5 274.5,365.5 Z"/></g>
<g><path style="opacity:0.026" fill="#e8e8e8" d="M 283.5,372.5 C 282.833,374.5 282.167,376.5 281.5,378.5C 281.335,375.482 281.502,372.482 282,369.5C 283.039,370.244 283.539,371.244 283.5,372.5 Z"/></g>
<g><path style="opacity:0.081" fill="#d0d0d0" d="M 206.5,372.5 C 206.5,372.833 206.5,373.167 206.5,373.5C 205.5,373.5 204.5,373.5 203.5,373.5C 203.5,374.5 203.5,375.5 203.5,376.5C 202.566,375.432 202.232,374.099 202.5,372.5C 203.833,372.5 205.167,372.5 206.5,372.5 Z"/></g>
<g><path style="opacity:0.078" fill="#dedede" d="M 237.5,372.5 C 237.5,373.167 237.5,373.833 237.5,374.5C 236.039,373.314 234.705,373.314 233.5,374.5C 232.957,374.44 232.624,374.107 232.5,373.5C 234.045,372.548 235.712,372.215 237.5,372.5 Z"/></g>
<g><path style="opacity:0.384" fill="#a4a4a4" d="M 233.5,376.5 C 235.027,376.427 236.027,377.094 236.5,378.5C 234.973,378.573 233.973,377.906 233.5,376.5 Z"/></g>
</svg>
