<?xml version="1.0" standalone="no"?>
<!DOCTYPE svg PUBLIC "-//W3C//DTD SVG 20010904//EN"
 "http://www.w3.org/TR/2001/REC-SVG-20010904/DTD/svg10.dtd">
<svg version="1.0" xmlns="http://www.w3.org/2000/svg"
 width="512.000000pt" height="512.000000pt" viewBox="0 0 512.000000 512.000000"
 preserveAspectRatio="xMidYMid meet">

<g transform="translate(0.000000,512.000000) scale(0.100000,-0.100000)"
fill="#000000" stroke="none">
<path d="M2777 5109 c-382 -40 -718 -324 -817 -689 -32 -122 -40 -242 -40
-662 l0 -398 -320 0 -320 0 0 -400 0 -400 320 0 320 0 0 -1280 0 -1280 480 0
480 0 0 1280 0 1280 318 0 318 0 157 393 c86 215 157 395 157 400 0 4 -214 7
-475 7 l-475 0 0 350 c0 333 1 352 22 407 29 77 104 152 181 181 52 20 78 22
247 22 l190 0 0 400 0 400 -332 -1 c-183 -1 -368 -5 -411 -10z"/>
</g>
</svg>
